<svg width="52" height="51" viewBox="0 0 52 51" fill="none" xmlns="http://www.w3.org/2000/svg">
<path d="M43.1448 25.116H34.5417C32.1758 25.116 30.2401 26.991 30.2401 29.2827V41.7827C30.2401 44.0743 32.1758 45.9493 34.5417 45.9493H43.1448C45.5106 45.9493 47.4463 44.0743 47.4463 41.7827V29.2827C47.4463 26.991 45.5106 25.116 43.1448 25.116Z" fill="#FBEDE5"/>
<path d="M17.3353 4.28264H8.73222C6.36637 4.28264 4.43068 6.15764 4.43068 8.44931V20.9493C4.43068 23.241 6.36637 25.116 8.73222 25.116H17.3353C19.7012 25.116 21.6369 23.241 21.6369 20.9493V8.44931C21.6369 6.15764 19.7012 4.28264 17.3353 4.28264Z" fill="#FBEDE5"/>
<path d="M43.1448 4.28268H34.5417C32.1758 4.28268 30.2401 6.15768 30.2401 8.44935V12.616C30.2401 14.9077 32.1758 16.7827 34.5417 16.7827H43.1448C45.5106 16.7827 47.4463 14.9077 47.4463 12.616V8.44935C47.4463 6.15768 45.5106 4.28268 43.1448 4.28268Z" fill="#FBEDE5"/>
<path d="M17.3354 33.4493H8.73232C6.36647 33.4493 4.43078 35.3243 4.43078 37.616V41.7827C4.43078 44.0743 6.36647 45.9493 8.73232 45.9493H17.3354C19.7013 45.9493 21.637 44.0743 21.637 41.7827V37.616C21.637 35.3243 19.7013 33.4493 17.3354 33.4493Z" fill="#FBEDE5"/>
</svg>
