<svg width="60" height="53" viewBox="0 0 60 53" fill="none" xmlns="http://www.w3.org/2000/svg">
<path fill-rule="evenodd" clip-rule="evenodd" d="M30.5658 24.5966C29.2872 24.5966 28.2217 25.5314 28.2217 26.653C28.2217 27.7747 29.2872 28.7094 30.5658 28.7094C31.8443 28.7094 32.9098 27.7747 32.9098 26.653C32.9098 25.5314 31.8443 24.5966 30.5658 24.5966ZM30.5658 7.95845C18.8454 7.95845 9.25598 16.371 9.25598 26.653C9.25598 36.935 18.8454 45.3476 30.5658 45.3476C42.2861 45.3476 51.8755 36.935 51.8755 26.653C51.8755 16.371 42.2861 7.95845 30.5658 7.95845ZM35.2539 30.7658L17.7799 37.8698L25.8776 22.5402L43.3516 15.4363L35.2539 30.7658Z" fill="#F8AEC3"/>
</svg>
