<svg width="60" height="53" viewBox="0 0 60 53" fill="none" xmlns="http://www.w3.org/2000/svg">
<path d="M53.6107 29.0145C53.4908 29.2868 53.2838 29.52 53.0165 29.684C52.7492 29.8479 52.434 29.935 52.1117 29.934H47.2236V41.7984C47.2222 42.1913 47.0501 42.5678 46.7449 42.8457C46.4396 43.1235 46.026 43.2802 45.5943 43.2814H37.4474V32.9001C37.4474 31.3268 36.7608 29.8179 35.5385 28.7054C34.3163 27.5929 32.6585 26.9679 30.93 26.9679C29.2014 26.9679 27.5437 27.5929 26.3214 28.7054C25.0992 29.8179 24.4125 31.3268 24.4125 32.9001V43.2814H16.2657C15.834 43.2802 15.4204 43.1235 15.1151 42.8457C14.8098 42.5678 14.6377 42.1913 14.6363 41.7984V29.934H9.74825C9.42595 29.935 9.11073 29.8479 8.84345 29.684C8.57618 29.52 8.36916 29.2868 8.24924 29.0145C8.12476 28.7444 8.09084 28.4468 8.15172 28.1591C8.2126 27.8715 8.36558 27.6067 8.5914 27.398L29.7731 8.11837C30.0807 7.84044 30.4966 7.68448 30.93 7.68448C31.3634 7.68448 31.7792 7.84044 32.0868 8.11837L53.2686 27.398C53.4944 27.6067 53.6474 27.8715 53.7082 28.1591C53.7691 28.4468 53.7352 28.7444 53.6107 29.0145Z" fill="#9DA3E9"/>
</svg>
