<svg width="33" height="38" viewBox="0 0 33 38" fill="none" xmlns="http://www.w3.org/2000/svg">
<path d="M16.1492 6.69344C16.7163 6.69344 17.3113 6.23357 17.3113 5.66613V3.17208C17.3113 2.60464 16.7163 2.14478 16.1492 2.14478C15.5821 2.14478 14.9871 2.60464 14.9871 3.17208V5.66613C14.9871 6.23357 15.5821 6.69344 16.1492 6.69344Z" fill="url(#paint0_linear)"/>
<path d="M20.9204 7.70571C21.0701 7.78291 21.2303 7.81926 21.3879 7.81926C21.7611 7.81926 22.121 7.61507 22.303 7.26029L23.4579 5.00613C23.7164 4.50128 23.5167 3.8822 23.0117 3.62355C22.5068 3.36407 21.8878 3.56462 21.6291 4.06947L20.4745 6.3233C20.2158 6.82815 20.4155 7.44722 20.9204 7.70571Z" fill="url(#paint1_linear)"/>
<path d="M10.3274 7.05776C10.5022 7.4303 10.8717 7.64928 11.2579 7.64928C11.4041 7.64928 11.5522 7.6179 11.6933 7.55199C12.207 7.31077 12.4281 6.69917 12.1872 6.18535L11.1143 3.89749C10.8737 3.38417 10.2621 3.1637 9.74813 3.40359C9.23448 3.64481 9.01335 4.25608 9.25424 4.7699L10.3274 7.05776Z" fill="url(#paint2_linear)"/>
<path d="M26.1477 13.3643H24.0916L24.2369 11.0264C24.2757 10.3932 23.7725 9.87793 23.138 9.87793H9.21313C8.57862 9.87793 8.07527 10.3932 8.11461 11.0264L8.25954 13.3643H6.54095C4.93458 13.3643 3.63086 14.7027 3.63086 16.3089C3.63086 17.1642 4.0044 17.9921 4.66199 18.5446L7.21282 20.7121L7.21315 20.7212L8.86417 22.1184C8.86384 22.1164 8.86351 22.1149 8.86318 22.1131L8.86417 22.1139L8.86866 22.1199C9.41169 24.8333 11.4147 26.9966 14.007 27.7832C14.522 27.9398 14.8766 28.4126 14.9143 28.9495L15.2959 32.8125C15.3112 33.0285 15.1401 33.1201 14.9234 33.1201H11.6273C11.4208 33.1201 11.3343 33.4722 11.3343 33.6781V34.4252C11.3343 34.6317 11.4208 34.6143 11.6273 34.6143H20.7238C20.93 34.6143 20.9632 34.6317 20.9632 34.4252V33.6781C20.9632 33.4722 20.93 33.1201 20.7238 33.1201H17.4281C17.2114 33.1201 17.0403 33.0288 17.0552 32.8128L17.4372 28.9042C17.4749 28.3673 17.8292 27.931 18.3442 27.7742C20.8224 27.0217 22.761 24.9854 23.4018 22.4951H23.406L23.407 22.4803C23.4066 22.4823 23.4033 22.4777 23.4027 22.4793L25.1138 21.0201V21.0177L28.0232 18.5609C28.677 18.0084 29.0518 17.1634 29.0518 16.3079C29.052 14.702 27.7501 13.3643 26.1477 13.3643ZM5.62554 17.4228C5.30812 17.1541 5.12484 16.7234 5.12484 16.309C5.12484 15.5279 5.76001 14.8586 6.54078 14.8586H6.84974H6.85422H8.35218H8.3477H8.35118L8.66313 19.9559L7.08565 18.6607L5.62554 17.4228ZM16.1332 22.8001C13.8466 22.8001 11.9929 20.946 11.9929 18.6595C11.9929 16.3723 13.8466 14.5186 16.1332 14.5186C18.4204 14.5186 20.2741 16.3723 20.2741 18.6595C20.2743 20.946 18.4205 22.8001 16.1332 22.8001ZM27.0592 17.4228L25.2476 18.9543L23.6694 20.2516L23.9995 14.8586H24.0043H23.9998H25.4978H25.5023H26.1476C26.9283 14.8586 27.5597 15.5279 27.5597 16.309C27.5597 16.7233 27.3766 17.1541 27.0592 17.4228Z" fill="url(#paint3_linear)"/>
<path d="M16.1332 20.7139C17.2678 20.7139 18.1877 19.7941 18.1877 18.6594C18.1877 17.5248 17.2678 16.605 16.1332 16.605C14.9986 16.605 14.0788 17.5248 14.0788 18.6594C14.0788 19.7941 14.9986 20.7139 16.1332 20.7139Z" fill="url(#paint4_linear)"/>
<defs>
<linearGradient id="paint0_linear" x1="16.1492" y1="2.14478" x2="16.1492" y2="6.69344" gradientUnits="userSpaceOnUse">
<stop stop-color="#FBC917"/>
<stop offset="1" stop-color="#FF6602"/>
</linearGradient>
<linearGradient id="paint1_linear" x1="21.9661" y1="3.51001" x2="21.9661" y2="7.81926" gradientUnits="userSpaceOnUse">
<stop stop-color="#FBC917"/>
<stop offset="1" stop-color="#FF6602"/>
</linearGradient>
<linearGradient id="paint2_linear" x1="10.7207" y1="3.30664" x2="10.7207" y2="7.64928" gradientUnits="userSpaceOnUse">
<stop stop-color="#FBC917"/>
<stop offset="1" stop-color="#FF6602"/>
</linearGradient>
<linearGradient id="paint3_linear" x1="16.3413" y1="9.87793" x2="16.3413" y2="34.6146" gradientUnits="userSpaceOnUse">
<stop stop-color="#FBC917"/>
<stop offset="1" stop-color="#FF6602"/>
</linearGradient>
<linearGradient id="paint4_linear" x1="16.1332" y1="16.605" x2="16.1332" y2="20.7139" gradientUnits="userSpaceOnUse">
<stop stop-color="#FBC917"/>
<stop offset="1" stop-color="#FF6602"/>
</linearGradient>
</defs>
</svg>
