<svg width="88" height="88" viewBox="0 0 88 88" fill="none" xmlns="http://www.w3.org/2000/svg">
<g filter="url(#filter0_d)">
<rect width="56" height="56" rx="28" transform="matrix(-1 0 0 1 72 4)" fill="black" fill-opacity="0.01"/>
<rect width="56" height="56" rx="28" transform="matrix(-1 0 0 1 72 4)" fill="white"/>
<g clip-path="url(#clip0)">
<path d="M55.1108 31.6864C55.1108 32.0667 54.8024 32.3751 54.4225 32.3746L34.5078 32.3746L38.2314 36.0981C38.5019 36.3687 38.5019 36.8079 38.2314 37.0785C37.9608 37.3491 37.5216 37.3491 37.251 37.0785L32.349 32.1766C32.2191 32.0467 32.1441 31.8707 32.1441 31.6864C32.1441 31.502 32.2191 31.3261 32.349 31.1962L37.251 26.2942C37.5216 26.0236 37.9608 26.0236 38.2314 26.2942C38.5019 26.5648 38.5019 27.004 38.2314 27.2746L34.5078 30.9981L54.4225 30.9981C54.8029 30.9981 55.1113 31.3065 55.1108 31.6864Z" fill="#008BE6"/>
</g>
</g>
<defs>
<filter id="filter0_d" x="0" y="0" width="88" height="88" filterUnits="userSpaceOnUse" color-interpolation-filters="sRGB">
<feFlood flood-opacity="0" result="BackgroundImageFix"/>
<feColorMatrix in="SourceAlpha" type="matrix" values="0 0 0 0 0 0 0 0 0 0 0 0 0 0 0 0 0 0 127 0"/>
<feOffset dy="12"/>
<feGaussianBlur stdDeviation="8"/>
<feColorMatrix type="matrix" values="0 0 0 0 0 0 0 0 0 0 0 0 0 0 0 0 0 0 0.08 0"/>
<feBlend mode="normal" in2="BackgroundImageFix" result="effect1_dropShadow"/>
<feBlend mode="normal" in="SourceGraphic" in2="effect1_dropShadow" result="shape"/>
</filter>
<clipPath id="clip0">
<rect width="22.1838" height="22.1838" fill="white" transform="matrix(-0.707107 0.707107 0.707107 0.707107 43.6274 16)"/>
</clipPath>
</defs>
</svg>
