<svg width="113" height="97" viewBox="0 0 113 97" fill="none" xmlns="http://www.w3.org/2000/svg">
<path fill-rule="evenodd" clip-rule="evenodd" d="M21.4845 96.5236C21.4845 96.5236 -10.0619 42.5721 9.46686 33.0807C28.9956 23.5892 82.0737 -36.3568 108.112 33.0807C134.15 102.518 21.4845 96.5236 21.4845 96.5236Z" fill="url(#paint0_linear)"/>
<path d="M69.7892 62.4765L76.1876 56.4061C76.6564 55.9608 76.6798 55.2343 76.2345 54.7655C75.7892 54.2968 75.0626 54.2733 74.5939 54.7186L69.0157 59.9921L66.7423 57.6249C66.297 57.1561 65.5704 57.1561 65.1017 57.6015C64.6329 58.0468 64.6329 58.7733 65.0782 59.2421L68.1486 62.4296C68.3829 62.664 68.6876 62.7812 68.9923 62.7812C69.2736 62.7812 69.5548 62.6874 69.7892 62.4765Z" fill="#FF6602"/>
<path d="M82.211 56.3827C82.1173 55.8202 82.0235 55.4217 81.9063 55.1405C80.2891 50.3593 75.8594 47.1249 70.7735 47.1014H70.4219C65.4063 47.1483 60.9766 50.3827 59.3829 55.1405C59.2657 55.4452 59.1719 55.8436 59.0782 56.4061C58.7266 58.4218 58.961 60.4374 59.7344 62.2186C59.7344 62.2421 59.7579 62.2889 59.7813 62.3124C59.8047 62.3592 59.8047 62.3827 59.8282 62.4296C60.4376 63.7421 61.3047 65.2655 62.1485 66.7421C62.6641 67.6327 63.1797 68.5233 63.6251 69.3671C63.9297 69.9296 64.6329 70.1405 65.1954 69.8358C65.7579 69.5311 65.9688 68.828 65.6641 68.2655C65.1954 67.3983 64.6797 66.4842 64.1407 65.5702C63.3438 64.1639 62.5001 62.7108 61.9376 61.4921C61.9141 61.4452 61.8907 61.3983 61.8672 61.328C61.2579 59.9217 61.0938 58.3514 61.3516 56.8046C61.3751 56.6405 61.4688 56.1718 61.5626 55.8671C62.8516 52.0233 66.4141 49.4452 70.4923 49.3983H70.8204C74.8282 49.4218 78.3907 52.0233 79.7032 55.8905C79.7969 56.1717 79.8907 56.6405 79.9141 56.7811C80.1954 58.3514 80.0079 59.8983 79.3985 61.3514C79.3751 61.3983 79.3516 61.4452 79.3516 61.4921C78.7891 62.7108 77.9454 64.1639 77.1485 65.5702C76.6094 66.4842 76.0938 67.3983 75.6251 68.2655C75.3204 68.828 75.5313 69.5311 76.0938 69.8358C76.2579 69.9296 76.4454 69.9764 76.6329 69.9764C77.0548 69.9764 77.4532 69.7421 77.6641 69.3671C78.1094 68.5233 78.6251 67.6327 79.1407 66.7421C79.9844 65.2655 80.8516 63.7655 81.461 62.4296C81.461 62.4061 81.4844 62.3592 81.5079 62.3358L81.5548 62.2421C82.3516 60.4374 82.5626 58.3983 82.211 56.3827Z" fill="#FF6602"/>
<path d="M74.9921 71.2889H66.2968C65.8281 71.2889 65.4062 71.4999 65.1015 71.8514C64.7968 72.203 64.6796 72.6717 64.7734 73.1171L65.1953 75.3202C65.3359 76.0468 65.9687 76.5858 66.7187 76.5858H67.1171C67.9843 77.6405 69.2734 78.2733 70.6562 78.2733C72.039 78.2733 73.3281 77.6405 74.1953 76.5858H74.5937C75.3437 76.5858 75.9765 76.0468 76.1171 75.3202L76.539 73.1171C76.6328 72.6717 76.5156 72.203 76.2109 71.8514C75.8828 71.4999 75.4609 71.2889 74.9921 71.2889ZM73.9374 74.2655H73.5859C73.164 74.2655 72.789 74.4764 72.5781 74.828C72.1796 75.5077 71.4296 75.9296 70.6328 75.9296C69.8359 75.9296 69.0859 75.5077 68.6874 74.828C68.4765 74.4764 68.1015 74.2655 67.6796 74.2655H67.3749L67.2578 73.6093H74.0781L73.9374 74.2655Z" fill="#FF6602"/>
<path d="M45.2265 33.5077C49.0234 33.5077 52.1171 30.4139 52.1171 26.6171C52.1171 22.8202 49.0234 19.7264 45.2265 19.7264C41.4296 19.7264 38.3359 22.8202 38.3359 26.6171C38.3359 30.4139 41.4296 33.5077 45.2265 33.5077ZM45.2265 22.0468C47.7343 22.0468 49.7968 24.1093 49.7968 26.6171C49.7968 29.1249 47.7343 31.1874 45.2265 31.1874C42.7187 31.1874 40.6562 29.1249 40.6562 26.6171C40.6562 24.1093 42.7187 22.0468 45.2265 22.0468Z" fill="#FF6602"/>
<path d="M53.5469 42.9531C52.9141 42.9062 52.3516 43.3984 52.3047 44.0312L51.25 59.5468C51.25 59.5937 51.2266 59.6406 51.2266 59.664L50.2422 74.7578C50.1953 75.414 49.6328 75.9531 48.9766 75.9531H41.4766C40.7969 75.9531 40.2578 75.4375 40.2109 74.7578L39.2266 59.664C39.2031 59.1953 38.875 58.7734 38.4062 58.6328C36.9531 58.1875 36.9531 58.1875 36.8594 56.6172L35.9687 40.6093V40.4453C37.2812 40.0468 39.5781 39.3203 40.6797 38.9687L44.4531 42.4843C44.8984 42.9062 45.6016 42.9062 46.0469 42.4843L49.8437 38.9218L60.9766 41.4297C61.1406 41.4765 61.3047 41.4765 61.4687 41.4297L71.9219 39.2968C72.5547 39.1797 72.9531 38.5468 72.8359 37.9375C72.7188 37.3281 72.0859 36.9062 71.4766 37.0234L61.2578 39.1093L49.7734 36.5078C49.3984 36.414 49 36.5312 48.7187 36.789L45.2266 40.0468L41.7578 36.789C41.4531 36.5078 41.0078 36.414 40.6094 36.5312C40.6094 36.5312 37.0703 37.6562 35.2656 38.1953C34.2109 38.5234 33.625 39.3203 33.625 40.3984C33.625 40.4922 33.625 40.6797 33.625 40.6797L34.5156 56.4765L34.5391 56.7343C34.7031 59.125 35.1016 59.875 36.9531 60.5547L37.8906 74.875C38.0078 76.75 39.5781 78.2265 41.4766 78.2265H48.9766C50.8516 78.2265 52.4219 76.75 52.5625 74.875L53.5469 59.8984C53.5469 59.8515 53.5469 59.8281 53.5703 59.7812L54.6484 44.1484C54.6719 43.539 54.2031 42.9765 53.5469 42.9531Z" fill="#FF6602"/>
<defs>
<linearGradient id="paint0_linear" x1="70.0059" y1="60.3731" x2="11.3084" y2="-12.7926" gradientUnits="userSpaceOnUse">
<stop stop-color="#F2F9FF"/>
<stop offset="1" stop-color="white"/>
</linearGradient>
</defs>
</svg>
