<svg width="113" height="97" viewBox="0 0 113 97" fill="none" xmlns="http://www.w3.org/2000/svg">
<path fill-rule="evenodd" clip-rule="evenodd" d="M21.4845 96.5236C21.4845 96.5236 -10.0619 42.5721 9.46686 33.0807C28.9956 23.5892 82.0737 -36.3568 108.112 33.0807C134.15 102.518 21.4845 96.5236 21.4845 96.5236Z" fill="url(#paint0_linear)" fill-opacity="0.24"/>
<path d="M66.75 29C67.0815 29 67.3995 28.8683 67.6339 28.6339C67.8683 28.3995 68 28.0815 68 27.75V25.25C68 24.9185 67.8683 24.6005 67.6339 24.3661C67.3995 24.1317 67.0815 24 66.75 24C66.4185 24 66.1005 24.1317 65.8661 24.3661C65.6317 24.6005 65.5 24.9185 65.5 25.25V27.75C65.5 28.0815 65.6317 28.3995 65.8661 28.6339C66.1005 28.8683 66.4185 29 66.75 29Z" fill="white"/>
<path d="M79.2501 41.5H81.7501C82.0816 41.5 82.3996 41.3683 82.634 41.1339C82.8684 40.8995 83.0001 40.5815 83.0001 40.25C83.0001 39.9185 82.8684 39.6005 82.634 39.3661C82.3996 39.1317 82.0816 39 81.7501 39H79.2501C78.9186 39 78.6006 39.1317 78.3662 39.3661C78.1318 39.6005 78.0001 39.9185 78.0001 40.25C78.0001 40.5815 78.1318 40.8995 78.3662 41.1339C78.6006 41.3683 78.9186 41.5 79.2501 41.5Z" fill="white"/>
<path d="M74.2502 34.0001C74.4141 34.0021 74.5767 33.9698 74.7273 33.9052C74.878 33.8406 75.0136 33.7452 75.1252 33.6251L77.6252 31.1251C77.7401 31.0102 77.8312 30.8738 77.8934 30.7237C77.9556 30.5735 77.9876 30.4126 77.9876 30.2501C77.9876 30.0876 77.9556 29.9267 77.8934 29.7766C77.8312 29.6265 77.7401 29.49 77.6252 29.3751C77.5103 29.2602 77.3738 29.1691 77.2237 29.1069C77.0736 29.0447 76.9127 29.0127 76.7502 29.0127C76.5877 29.0127 76.4268 29.0447 76.2766 29.1069C76.1265 29.1691 75.9901 29.2602 75.8752 29.3751L73.3752 31.8751C73.2556 31.9874 73.1603 32.1229 73.0951 32.2734C73.03 32.4239 72.9964 32.5861 72.9964 32.7501C72.9964 32.9141 73.03 33.0764 73.0951 33.2269C73.1603 33.3774 73.2556 33.5129 73.3752 33.6251C73.4868 33.7452 73.6223 33.8406 73.773 33.9052C73.9237 33.9698 74.0862 34.0021 74.2502 34.0001Z" fill="white"/>
<path d="M70.3499 36.6502C66.3428 32.4959 61.743 28.9576 56.6999 26.1502C51.9749 23.6502 48.4999 23.3252 46.6999 25.1752C46.2942 25.5999 45.9787 26.1024 45.7725 26.6524C45.5663 27.2024 45.4735 27.7884 45.4999 28.3752V44.6502C45.4702 46.2802 44.8171 47.8369 43.6749 49.0002L35.9749 56.7752C35.0301 57.7057 34.2797 58.8148 33.7676 60.038C33.2554 61.2612 32.9916 62.5741 32.9916 63.9002C32.9916 65.2263 33.2554 66.5391 33.7676 67.7623C34.2797 68.9856 35.0301 70.0947 35.9749 71.0252C36.9054 71.97 38.0145 72.7204 39.2377 73.2325C40.461 73.7447 41.7738 74.0085 43.0999 74.0085C44.426 74.0085 45.7389 73.7447 46.9621 73.2325C48.1853 72.7204 49.2944 71.97 50.2249 71.0252L50.4999 70.7752L51.8249 72.0752C52.4276 72.6894 53.1476 73.1763 53.9421 73.507C54.7366 73.8377 55.5894 74.0054 56.4499 74.0002C58.1851 73.9936 59.8473 73.3014 61.0742 72.0744C62.3011 70.8475 62.9933 69.1853 62.9999 67.4502C63.0051 66.5896 62.8374 65.7368 62.5068 64.9423C62.1761 64.1478 61.6892 63.4279 61.0749 62.8252L60.1749 61.9002C60.8715 61.6426 61.6073 61.5073 62.3499 61.5002H79.2499C79.4315 61.4943 79.6101 61.4517 79.7749 61.3752C80.5531 61.2539 81.2718 60.8858 81.8249 60.3252C83.6749 58.5002 83.3249 55.0252 80.8499 50.3252C78.0445 45.2733 74.5061 40.6649 70.3499 36.6502ZM48.4249 26.9252C48.8399 26.6106 49.3558 26.4594 49.8749 26.5002C51.8639 26.6921 53.7853 27.3241 55.4999 28.3502C60.3044 31.0444 64.6989 34.4118 68.5499 38.3502C72.4883 42.2012 75.8557 46.5957 78.5499 51.4002C80.6999 55.5252 80.6499 57.8252 79.9749 58.5252C79.7737 58.6889 79.5417 58.8108 79.2928 58.8838C79.0438 58.9568 78.7827 58.9794 78.5249 58.9502C75.1032 58.4148 71.8756 57.0119 69.1499 54.8752C68.1749 54.2002 67.2499 53.5002 66.3499 52.8002C66.6007 51.9899 66.7354 51.1482 66.7499 50.3002C66.7621 48.7477 66.4127 47.2137 65.7293 45.8197C65.0458 44.4257 64.0472 43.2099 62.8125 42.2688C61.5778 41.3276 60.141 40.6868 58.6157 40.3972C57.0904 40.1076 55.5187 40.1771 54.0249 40.6002C53.3499 39.7002 52.6499 38.7752 51.9749 37.8002C49.8662 35.0499 48.4976 31.8049 47.9999 28.3752C47.9707 28.1174 47.9933 27.8563 48.0663 27.6073C48.1392 27.3583 48.2612 27.1264 48.4249 26.9252ZM64.2749 51.0752C62.7749 49.8252 61.3249 48.5752 59.8999 47.1002C58.4749 45.6252 57.1749 44.2252 55.9249 42.7252C56.9846 42.5934 58.0602 42.6895 59.0798 43.007C60.0994 43.3244 61.0394 43.856 61.837 44.566C62.6346 45.276 63.2714 46.1482 63.7047 47.1241C64.1381 48.1001 64.3581 49.1573 64.3499 50.2252C64.3499 50.5502 64.2999 50.8002 64.2749 51.0752ZM37.7249 69.2752C37.0067 68.5763 36.4359 67.7406 36.0461 66.8174C35.6564 65.8942 35.4555 64.9023 35.4555 63.9002C35.4555 62.8981 35.6564 61.9061 36.0461 60.9829C36.4359 60.0598 37.0067 59.224 37.7249 58.5252L38.1499 58.1002C38.5109 60.8245 39.7596 63.354 41.7028 65.2973C43.6461 67.2405 46.1755 68.4892 48.8999 68.8502L48.4749 69.2752C47.0279 70.6596 45.1025 71.4323 43.0999 71.4323C41.0973 71.4323 39.1719 70.6596 37.7249 69.2752ZM59.3249 64.5752C60.0762 65.3438 60.4978 66.3754 60.4999 67.4502C60.5004 68.5255 60.0785 69.558 59.3249 70.3252C58.5434 71.0509 57.5164 71.4542 56.4499 71.4542C55.3834 71.4542 54.3564 71.0509 53.5749 70.3252L52.2749 69.0002L57.9999 63.3252L59.3249 64.5752ZM62.3499 59.0002C61.2061 58.9853 60.0708 59.1987 59.0105 59.628C57.9502 60.0572 56.9862 60.6937 56.1749 61.5002L51.2749 66.5002H50.4999C47.8478 66.5002 45.3042 65.4466 43.4289 63.5712C41.5535 61.6959 40.4999 59.1523 40.4999 56.5002C40.4866 56.242 40.4866 55.9833 40.4999 55.7252L45.4999 50.7252C46.3019 49.9106 46.9354 48.946 47.3644 47.8864C47.7933 46.8269 48.0093 45.6932 47.9999 44.5502V35.8752C48.6499 37.0502 49.3499 38.1752 50.0249 39.1502C50.9999 40.6002 51.9999 41.9252 53.0249 43.1752C54.6322 45.1557 56.3429 47.05 58.1499 48.8502C59.9749 50.6752 61.8749 52.4002 63.7999 53.9752C65.0749 55.0002 66.2999 55.9752 67.8499 56.9752C68.8249 57.6502 69.9499 58.3502 71.1249 59.0002H62.3499Z" fill="white"/>
<defs>
<linearGradient id="paint0_linear" x1="70.0059" y1="60.3731" x2="11.3084" y2="-12.7926" gradientUnits="userSpaceOnUse">
<stop stop-color="#F2F9FF"/>
<stop offset="1" stop-color="white"/>
</linearGradient>
</defs>
</svg>
