<svg width="113" height="97" viewBox="0 0 113 97" fill="none" xmlns="http://www.w3.org/2000/svg">
<path fill-rule="evenodd" clip-rule="evenodd" d="M21.4845 96.5236C21.4845 96.5236 -10.0619 42.5721 9.46686 33.0807C28.9956 23.5892 82.0737 -36.3568 108.112 33.0807C134.15 102.518 21.4845 96.5236 21.4845 96.5236Z" fill="url(#paint0_linear)"/>
<path d="M77.25 29.15H73.5V27.75C73.5 26.7554 73.1049 25.8016 72.4016 25.0983C71.6984 24.3951 70.7446 24 69.75 24H42.25C41.2554 24 40.3016 24.3951 39.5983 25.0983C38.8951 25.8016 38.5 26.7554 38.5 27.75V29.15H34.75C33.7554 29.15 32.8016 29.5451 32.0983 30.2484C31.3951 30.9516 31 31.9054 31 32.9V37.9C31 46.025 39.95 56.025 51 58.475V64.3L41.95 66.5C41.6749 66.5725 41.4319 66.7349 41.2598 66.9614C41.0876 67.1879 40.9962 67.4655 41 67.75V72.75C41 73.0815 41.1317 73.3995 41.3661 73.6339C41.6005 73.8683 41.9185 74 42.25 74H69.75C70.0815 74 70.3995 73.8683 70.6339 73.6339C70.8683 73.3995 71 73.0815 71 72.75V67.75C71.0014 67.4718 70.9081 67.2015 70.7355 66.9834C70.5628 66.7653 70.3211 66.6124 70.05 66.55L61 64.275V58.45C72.05 55.95 81 45.95 81 37.875V32.875C80.9934 31.8848 80.5954 30.9374 79.8929 30.2395C79.1903 29.5416 78.2402 29.15 77.25 29.15ZM41 27.75C41 27.4185 41.1317 27.1005 41.3661 26.8661C41.6005 26.6317 41.9185 26.5 42.25 26.5H69.75C70.0815 26.5 70.3995 26.6317 70.6339 26.8661C70.8683 27.1005 71 27.4185 71 27.75V34.125C71 42.95 64.275 56.625 56 56.625C47.725 56.625 41 42.95 41 34.125V27.75ZM33.5 37.875V32.875C33.5 32.5435 33.6317 32.2255 33.8661 31.9911C34.1005 31.7567 34.4185 31.625 34.75 31.625H38.5V34.125C38.7402 41.6284 41.617 48.8072 46.625 54.4C38.75 50.8 33.5 43.275 33.5 37.875ZM68.5 71.5H43.5V68.725L52.4 66.5H59.6L68.5 68.725V71.5ZM58.5 64H53.5V58.85C55.1607 59.0501 56.8393 59.0501 58.5 58.85V64ZM78.5 37.875C78.5 43.275 73.25 50.8 65.375 54.4C70.383 48.8072 73.2598 41.6284 73.5 34.125V31.625H77.25C77.5815 31.625 77.8995 31.7567 78.1339 31.9911C78.3683 32.2255 78.5 32.5435 78.5 32.875V37.875Z" fill="#FF6602"/>
<path d="M52.25 44C52.5815 44 52.8995 43.8683 53.1339 43.6339C53.3683 43.3995 53.5 43.0815 53.5 42.75V35.25C53.5 34.9185 53.3683 34.6005 53.1339 34.3661C52.8995 34.1317 52.5815 34 52.25 34C51.9185 34 51.6005 34.1317 51.3661 34.3661C51.1317 34.6005 51 34.9185 51 35.25V42.75C51 43.0815 51.1317 43.3995 51.3661 43.6339C51.6005 43.8683 51.9185 44 52.25 44Z" fill="#FF6602"/>
<path d="M59.75 44C60.0815 44 60.3995 43.8683 60.6339 43.6339C60.8683 43.3995 61 43.0815 61 42.75V35.25C61 34.9185 60.8683 34.6005 60.6339 34.3661C60.3995 34.1317 60.0815 34 59.75 34C59.4185 34 59.1005 34.1317 58.8661 34.3661C58.6317 34.6005 58.5 34.9185 58.5 35.25V42.75C58.5 43.0815 58.6317 43.3995 58.8661 43.6339C59.1005 43.8683 59.4185 44 59.75 44Z" fill="#FF6602"/>
<defs>
<linearGradient id="paint0_linear" x1="70.0059" y1="60.3731" x2="11.3084" y2="-12.7926" gradientUnits="userSpaceOnUse">
<stop stop-color="#F2F9FF"/>
<stop offset="1" stop-color="white"/>
</linearGradient>
</defs>
</svg>
